<svg width="1440" height="900" viewBox="0 0 1440 900" fill="none" xmlns="http://www.w3.org/2000/svg">
  <rect width="1440" height="900" rx="32" fill="#061019"/>
  <rect x="56" y="56" width="1328" height="788" rx="28" fill="#0B121E" stroke="#203247"/>
  <rect x="88" y="88" width="1264" height="58" rx="18" fill="#101826"/>
  <text x="124" y="124" fill="#DDE7F5" font-family="monospace" font-size="24">Files</text>
  <text x="214" y="124" fill="#93A4BC" font-family="monospace" font-size="18">pane-scoped workspace</text>
  <rect x="88" y="176" width="368" height="636" rx="24" fill="#0F1827" stroke="#29415C"/>
  <rect x="488" y="176" width="864" height="636" rx="24" fill="#0E1624" stroke="#29415C"/>
  <text x="120" y="226" fill="#93A4BC" font-family="monospace" font-size="18">directory tree</text>
  <text x="120" y="276" fill="#53F2AE" font-family="monospace" font-size="20">src/</text>
  <text x="152" y="314" fill="#DDE7F5" font-family="monospace" font-size="18">app/</text>
  <text x="184" y="352" fill="#DDE7F5" font-family="monospace" font-size="18">notes/page.tsx</text>
  <text x="152" y="390" fill="#DDE7F5" font-family="monospace" font-size="18">components/</text>
  <text x="152" y="428" fill="#DDE7F5" font-family="monospace" font-size="18">lib/</text>
  <text x="120" y="476" fill="#53F2AE" font-family="monospace" font-size="20">README.md</text>
  <text x="520" y="226" fill="#93A4BC" font-family="monospace" font-size="18">relative path preview</text>
  <text x="520" y="278" fill="#DDE7F5" font-family="monospace" font-size="20">README.md</text>
  <text x="520" y="318" fill="#93A4BC" font-family="monospace" font-size="18">copy and insert use pane-relative paths</text>
  <rect x="520" y="360" width="800" height="382" rx="18" fill="#09111A"/>
  <text x="552" y="414" fill="#DDE7F5" font-family="monospace" font-size="20">## Files Browser</text>
  <text x="552" y="458" fill="#DDE7F5" font-family="monospace" font-size="18">Browse the active pane's working directory without leaking</text>
  <text x="552" y="492" fill="#DDE7F5" font-family="monospace" font-size="18">absolute host paths back into the browser UI.</text>
  <rect x="1018" y="252" width="140" height="40" rx="12" fill="#123222"/>
  <text x="1050" y="278" fill="#53F2AE" font-family="monospace" font-size="16">Insert Path</text>
  <rect x="1174" y="252" width="120" height="40" rx="12" fill="#172130"/>
  <text x="1204" y="278" fill="#DDE7F5" font-family="monospace" font-size="16">Copy Path</text>
</svg>
